# xmcd
#
# Track frame offsets:
#	150
#	14118
#	32405
#	51544
#	67580
#	83584
#	100548
#	114406
#	134497
#	150491
#	173882
#	196066
#	207791
#	226227
#	244076
#	262216
#	284062
#
# Disc length: 4037 seconds
#
# Revision: 2
# Processed by: cddbd v1.5.2PL0 Copyright (c) Steve Scherf et al.
# Submitted via: EasyCDDAExtractor 11.1.0.1
#
DISCID=e50fc311
DTITLE=Various Artist - Byron Bay Bluesfest 2008 - Disc 2
DYEAR=2008
DGENRE=Blues
TTITLE0=Xavier Rudd - Better People
TTITLE1=Weddings Parties Anything - Father's Day
TTITLE2=G Love And Special Sauce - Blues Music
TTITLE3=Jason Mraz - Curbside Prophet
TTITLE4=Seasick Steve - Dog House Boogie
TTITLE5=Angus And Julia Stone - Wasted
TTITLE6=Lior - This Old Love
TTITLE7=The Audreys - Oh Honey
TTITLE8=Carus And The True Believers - Downtown
TTITLE9=Guy Davis - It Takes Love To Make A Home
TTITLE10=Rodrigo Y Gabriela - Diablo Rojo
TTITLE11=The Bellrays - Have A Little Faith In Me
TTITLE12=Keb' Mo' - Let You Light Shine
TTITLE13=Fiona Boyes, Mookie Brill, Rich Delgrosso - Homegrown Sin
TTITLE14=JJ Grey And Mofro - Contry Ghetto
TTITLE15=Anne McCue - Driving Down Alvarado
TTITLE16=Patty Griffin - Up To The Mountain
EXTD=
EXTT0=
EXTT1=
EXTT2=
EXTT3=
EXTT4=
EXTT5=
EXTT6=
EXTT7=
EXTT8=
EXTT9=
EXTT10=
EXTT11=
EXTT12=
EXTT13=
EXTT14=
EXTT15=
EXTT16=
PLAYORDER=
